<svg xmlns="http://www.w3.org/2000/svg" viewBox="0 0 32 32" shape-rendering="crispEdges"><path stroke="#ffffff" d="M0 0h32M0 1h32M0 2h32M0 3h32M0 4h32M0 5h32M0 6h32M0 7h32M0 8h32M0 9h32M0 10h32M0 11h32M0 12h32M0 13h32M0 14h32M0 15h32M0 16h32M0 17h32M0 18h32M0 19h32M0 20h32M0 21h32M0 22h32M0 23h32M0 24h32M0 25h32M0 26h32M0 27h32M0 28h32M0 29h32M0 30h32M0 31h32"/><path stroke="#3f48cc" d="M0 0h1M0 1h2M0 2h3M0 3h3M0 4h3M0 5h3M0 6h3M0 7h3M0 8h3M0 9h3M0 10h3M0 11h3M0 12h3M0 13h3M0 14h3M0 15h3"/><path stroke="#7092be" d="M20 1h1M20 2h3M20 3h5M20 4h7M20 5h9M20 6h11M20 7h12M20 8h12M20 9h12M20 10h12M20 11h12M20 12h12M20 13h12M20 14h12M20 15h12"/><path stroke="#fff200" d="M8 2h1M8 3h2M8 4h3M8 5h4M8 6h5M8 7h5M9 8h4M10 9h3M11 10h2M12 11h1M8 19h5M8 20h17M8 21h18M8 22h19"/><path stroke="#ff7f27" d="M3 3h1M3 4h2M3 5h3M3 6h4M3 7h5M3 8h6M3 9h7M3 10h8M3 11h9M3 12h10M3 13h11M3 14h12M3 15h13M3 16h14M3 17h15M3 18h16"/><path stroke="#22b14c" d="M13 4h1M13 5h2M13 6h4M13 7h5M13 8h6M13 9h7M13 10h7M13 11h7M13 12h7M14 13h6M15 14h5M16 15h4M17 16h12M18 17h12M19 18h12M13 19h19"/><path stroke="#ffaec9" d="M0 19h1M0 20h2M0 21h3M0 22h4M0 23h4M0 24h5M0 25h6M0 26h7M0 27h8M0 28h8M0 29h9M0 30h10"/><path stroke="#ed1c24" d="M4 19h4M4 20h4M4 21h4M4 22h4M4 23h12M5 24h13M6 25h14M7 26h15M8 27h14M8 28h14M9 29h13"/><path stroke="#7f7f7f" d="M16 23h7M18 24h6M20 25h2M23 25h2M25 26h1"/><path stroke="#b97a57" d="M22 25h1M22 26h3M22 27h5M22 28h7M22 29h9M22 30h10M22 31h10"/><path stroke="#000000" d="M13 7h7M12 8h1M20 8h1M12 9h1M21 9h1M11 10h1M22 10h1M11 11h1M22 11h1M11 12h1M22 12h1M10 13h1M21 13h1M9 14h1M21 14h1M8 15h1M21 15h1M8 16h1M22 16h1M8 17h1M22 17h1M8 18h1M22 18h1M8 19h1M21 19h1M8 20h1M21 20h1M8 21h1M21 21h1M8 22h1M21 22h1M9 23h1M20 23h1M10 24h10M11 25h1M17 25h1M11 26h1M17 26h1M11 27h2M17 27h2"/><path stroke="#7f7f7f" opacity="0.5" d="M13 26h3M9 27h2M13 27h4M19 27h2M9 28h14M12 29h15M19 30h9"/><path stroke="#ffffff" d="M13 8h7M13 9h8M12 10h10M12 11h10M12 12h10M11 13h10M10 14h11M9 15h12M9 16h13M9 17h13M9 18h13M9 19h12M9 20h12M9 21h12M9 22h12M10 23h10"/><path stroke="#000000" d="M17 0h2M20 0h2M16 1h1M19 1h1M22 1h1M17 2h3M21 2h2M18 3h4M17 4h2M21 4h1M16 5h1M19 5h2M16 6h1"/><path stroke="#22b14c" d="M17 1h2M20 1h2M20 2h1M19 4h2"/><path stroke="#000000" d="M20 10h3M13 11h5M19 11h1M23 11h1M13 12h2M16 12h2M19 12h1M21 12h1M23 12h1M13 13h5M19 13h1M23 13h1M14 14h3M20 14h3"/><path stroke="#f2f2f2" d="M20 11h3M15 12h1M20 12h1M22 12h1M20 13h3"/><path stroke="#000000" d="M19 13h1M13 14h7M13 15h1M19 15h1M12 16h3M16 16h4M15 17h2M15 18h1M12 19h3"/><path stroke="#7f7f7f" d="M14 15h5M15 16h1"/></svg>