<svg xmlns="http://www.w3.org/2000/svg" viewBox="0 0 32 32" shape-rendering="crispEdges"><path stroke="#ffffff" d="M0 0h32M0 1h32M0 2h32M0 3h32M0 4h32M0 5h32M0 6h32M0 7h32M0 8h32M0 9h32M0 10h32M0 11h32M0 12h32M0 13h32M0 14h32M0 15h32M0 16h32M0 17h32M0 18h32M0 19h32M0 20h32M0 21h32M0 22h32M0 23h32M0 24h32M0 25h32M0 26h32M0 27h32M0 28h32M0 29h32M0 30h32M0 31h32"/><path stroke="#ff8f91" d="M1 1h31M1 2h1M31 2h1M1 3h1M31 3h1M1 4h1M4 4h25M31 4h1M1 5h1M4 5h1M28 5h1M31 5h1M1 6h1M4 6h1M28 6h1M31 6h1M1 7h1M4 7h1M7 7h19M28 7h1M31 7h1M1 8h1M4 8h1M7 8h1M25 8h1M28 8h1M31 8h1M1 9h1M4 9h1M7 9h1M25 9h1M28 9h1M31 9h1M1 10h1M4 10h1M7 10h1M10 10h13M25 10h1M28 10h1M31 10h1M1 11h1M4 11h1M7 11h1M10 11h1M22 11h1M25 11h1M28 11h1M31 11h1M1 12h1M4 12h1M7 12h1M10 12h1M22 12h1M25 12h1M28 12h1M31 12h1M1 13h1M4 13h1M7 13h1M10 13h1M13 13h7M22 13h1M25 13h1M28 13h1M31 13h1M1 14h1M4 14h1M7 14h1M10 14h1M13 14h1M19 14h1M22 14h1M25 14h1M28 14h1M31 14h1M1 15h1M4 15h1M7 15h1M10 15h1M13 15h1M19 15h1M22 15h1M25 15h1M28 15h1M31 15h1M1 16h1M4 16h1M7 16h1M10 16h1M13 16h1M16 16h1M19 16h1M22 16h1M25 16h1M28 16h1M31 16h1M1 17h1M4 17h1M7 17h1M10 17h1M13 17h1M16 17h1M19 17h1M22 17h1M25 17h1M28 17h1M31 17h1M1 18h1M4 18h1M7 18h1M10 18h1M13 18h4M19 18h1M22 18h1M25 18h1M28 18h1M31 18h1M1 19h1M4 19h1M7 19h1M10 19h1M19 19h1M22 19h1M25 19h1M28 19h1M31 19h1M1 20h1M4 20h1M7 20h1M10 20h1M19 20h1M22 20h1M25 20h1M28 20h1M31 20h1M1 21h1M4 21h1M7 21h1M10 21h10M22 21h1M25 21h1M28 21h1M31 21h1M1 22h1M4 22h1M7 22h1M22 22h1M25 22h1M28 22h1M31 22h1M1 23h1M4 23h1M7 23h1M22 23h1M25 23h1M28 23h1M31 23h1M1 24h1M4 24h1M7 24h16M25 24h1M28 24h1M31 24h1M1 25h1M4 25h1M25 25h1M28 25h1M31 25h1M1 26h1M4 26h1M25 26h1M28 26h1M31 26h1M1 27h1M4 27h22M28 27h1M31 27h1M1 28h1M28 28h1M31 28h1M1 29h1M28 29h1M31 29h1M1 30h28M31 30h1M31 31h1"/><path stroke="#000000" d="M13 7h7M12 8h1M20 8h1M12 9h1M21 9h1M11 10h1M22 10h1M11 11h1M22 11h1M11 12h1M22 12h1M10 13h1M21 13h1M9 14h1M21 14h1M8 15h1M21 15h1M8 16h1M22 16h1M8 17h1M22 17h1M8 18h1M22 18h1M8 19h1M21 19h1M8 20h1M21 20h1M8 21h1M21 21h1M8 22h1M21 22h1M9 23h1M20 23h1M10 24h10M11 25h1M17 25h1M11 26h1M17 26h1M11 27h2M17 27h2"/><path stroke="#7f7f7f" opacity="0.5" d="M13 26h3M9 27h2M13 27h4M19 27h2M9 28h14M12 29h15M19 30h9"/><path stroke="#b97a57" d="M13 8h7M13 9h8M12 10h10M12 11h10M12 12h10M11 13h10M10 14h11M9 15h12M9 16h13M9 17h13M9 18h13M9 19h12M9 20h12M9 21h12M9 22h12M10 23h10"/> <path stroke="#000000" d="M13 10h4M18 10h4M10 11h4M16 11h3M21 11h1M10 12h1M13 12h1M16 12h1M18 12h1M21 12h1M13 13h4M18 13h4"/><path stroke="#ed1c24" d="M14 11h2M14 12h2"/><path stroke="#3f48cc" d="M19 11h2M19 12h2"/><path stroke="#000000" d="M11 17h1M14 17h1M11 18h1M14 18h1M11 19h1M14 19h1M12 20h2"/><path stroke="#fff200" d="M15 19h1M14 20h3M13 21h5M14 22h3M15 23h1"/></svg>