<svg xmlns="http://www.w3.org/2000/svg" viewBox="0 0 32 32" shape-rendering="crispEdges"><path stroke="#ff8e90" d="M0 0h32M0 1h32M0 2h32M0 3h32M0 4h32M0 5h32M0 6h32M0 7h32M0 8h32M0 9h32M0 10h32M0 11h32M0 12h32M0 13h32M0 14h32M0 15h32M0 16h32M0 17h32M0 18h32M0 19h32M0 20h32M0 21h32M0 22h32M0 23h32M0 24h32M0 25h32M0 26h32M0 27h32M0 28h32M0 29h32M0 30h32M0 31h32"/><path stroke="#000000" d="M13 7h7M12 8h1M20 8h1M12 9h1M21 9h1M11 10h1M22 10h1M11 11h1M22 11h1M11 12h1M22 12h1M10 13h1M21 13h1M9 14h1M21 14h1M8 15h1M21 15h1M8 16h1M22 16h1M8 17h1M22 17h1M8 18h1M22 18h1M8 19h1M21 19h1M8 20h1M21 20h1M8 21h1M21 21h1M8 22h1M21 22h1M9 23h1M20 23h1M10 24h10M11 25h1M17 25h1M11 26h1M17 26h1M11 27h2M17 27h2"/><path stroke="#7f7f7f" opacity="0.5" d="M13 26h3M9 27h2M13 27h4M19 27h2M9 28h14M12 29h15M19 30h9"/><path stroke="#c9ff20" d="M13 8h4M18 8h2M13 9h1M15 9h6M13 10h7M21 10h1M12 11h10M12 12h3M16 12h6M11 13h7M19 13h2M10 14h1M12 14h9M9 15h12M9 16h3M13 16h7M21 16h1M9 17h6M16 17h1M18 17h4M9 18h1M11 18h11M9 19h12M9 20h3M13 20h3M17 20h1M19 20h2M9 21h12M10 22h8M19 22h2M10 23h2M13 23h7"/><path stroke="#b5e61d" d="M17 8h1M14 9h1M12 10h1M20 10h1M15 12h1M18 13h1M11 14h1M12 16h1M20 16h1M15 17h1M17 17h1M10 18h1M12 20h1M16 20h1M18 20h1M9 22h1M18 22h1M12 23h1"/><path stroke="#000000" d="M13 6h8M12 7h2M20 7h2M8 8h5M21 8h2M8 9h1M22 9h1M8 10h15"/><path stroke="#7f7f7f" d="M14 7h6M13 8h8M9 9h13"/><path stroke="#000000" d="M14 10h3M20 10h3M13 11h1M17 11h1M19 11h1M23 11h1M13 12h1M17 12h1M19 12h1M23 12h1M13 13h1M17 13h1M19 13h1M23 13h1M14 14h3M20 14h3"/><path stroke="#ed1c24" d="M14 11h3M20 11h3M14 12h1M16 12h1M20 12h1M22 12h1M14 13h3M20 13h3"/><path stroke="#730e11" d="M15 12h1M21 12h1"/><path stroke="#000000" d="M11 17h1M14 17h1M11 18h1M14 18h1M11 19h1M14 19h1M10 20h6M10 21h2M14 21h2M8 22h10M8 23h1M11 23h1M14 23h1M17 23h1M8 24h1M11 24h4M17 24h1M8 25h1M17 25h1M8 26h10"/><path stroke="#7f7f7f" d="M9 23h2M15 23h2M9 24h2M15 24h2M9 25h8"/><path stroke="#c3c3c3" d="M12 23h2"/></svg>