<svg xmlns="http://www.w3.org/2000/svg" viewBox="0 0 32 32" shape-rendering="crispEdges"><path stroke="#ffffff" d="M0 0h32M0 1h32M0 2h32M0 3h32M0 4h32M0 5h32M0 6h32M0 7h32M0 8h32M0 9h32M0 10h32M0 11h32M0 12h32M0 13h32M0 14h32M0 15h32M0 16h32M0 17h32M0 18h32M0 19h32M0 20h32M0 21h32M0 22h32M0 23h32M0 24h32M0 25h32M0 26h32M0 27h32M0 28h32M0 29h32M0 30h32M0 31h32" /><path stroke="#7f7f7f" d="M0 0h7M0 1h6M0 2h3M22 2h3M29 2h1M0 3h2M12 3h1M19 3h7M28 3h4M0 4h1M12 4h1M16 4h10M28 4h4M0 5h1M11 5h3M17 5h15M11 6h3M19 6h13M9 7h5M15 7h1M21 7h9M7 8h7M15 8h3M21 8h10M9 9h4M22 9h8M6 10h1M11 10h2M18 10h1M23 10h4M11 11h1M18 11h2M24 11h3M6 12h2M18 12h2M24 12h3M0 13h1M6 13h1M18 13h2M0 14h1M5 14h2M8 14h1M17 14h4M24 14h1M0 15h2M3 15h3M9 15h2M15 15h8M25 15h1M0 16h2M5 16h1M13 16h13M28 16h3M0 17h2M15 17h9M27 17h4M0 18h3M17 18h4M24 18h7M0 19h7M18 19h3M26 19h6M0 20h9M12 20h2M18 20h3M28 20h3M0 21h7M12 21h2M18 21h2M29 21h1M0 22h3M11 22h4M18 22h1M29 22h1M0 23h2M10 23h6M0 24h2M5 24h2M8 24h13M30 24h1M0 25h2M6 25h1M8 25h12M0 26h1M10 26h6M0 27h1M11 27h4M12 28h2M30 28h2M12 29h2M24 29h2M30 29h2M12 30h1M25 30h2M29 30h3M29 31h3" /><path stroke="#c3c3c3" d="M19 0h13M22 1h9M5 2h1M25 2h4M5 3h2M26 3h2M1 4h10M26 4h2M2 5h8M0 6h1M5 6h2M0 7h2M5 7h1M14 7h1M0 8h2M14 8h1M0 9h3M13 9h3M31 9h1M0 10h6M13 10h3M31 10h1M0 11h8M12 11h5M31 11h1M0 12h5M9 12h9M28 12h4M1 13h2M7 13h1M10 13h8M24 13h8M1 14h1M7 14h1M12 14h5M25 14h7M6 15h3M13 15h2M28 15h4M6 16h3M31 16h1M6 17h3M14 17h1M31 17h1M3 18h9M14 18h1M21 18h3M31 18h1M7 19h7M21 19h3M9 20h3M21 20h3M27 20h1M7 21h2M20 21h6M27 21h2M6 22h3M17 22h1M19 22h10M6 23h3M19 23h11M7 24h1M21 24h3M26 24h4M7 25h1M21 25h11M1 26h1M20 26h12M1 27h2M22 27h10M0 28h4M18 28h1M22 28h1M26 28h4M0 29h9M18 29h2M26 29h4M0 30h8M17 30h4M27 30h2M0 31h4M14 31h10M27 31h2" /><path stroke="#000000" d="M13 7h7M12 8h1M20 8h1M12 9h1M21 9h1M11 10h1M22 10h1M11 11h1M22 11h1M11 12h1M22 12h1M10 13h1M21 13h1M9 14h1M21 14h1M8 15h1M21 15h1M8 16h1M22 16h1M8 17h1M22 17h1M8 18h1M22 18h1M8 19h1M21 19h1M8 20h1M21 20h1M8 21h1M21 21h1M8 22h1M21 22h1M9 23h1M20 23h1M10 24h10M11 25h1M17 25h1M11 26h1M17 26h1M11 27h2M17 27h2" /><path stroke="#7f7f7f" opacity= "0.5" d="M13 26h3M9 27h2M13 27h4M19 27h2M9 28h14M12 29h15M19 30h9" /><path stroke="#741b7c" d="M13 8h7M13 9h8M12 10h10M12 11h10M12 12h10M11 13h10M10 14h11M9 15h12M9 16h13M9 17h13M9 18h13M9 19h12M9 20h12M9 21h12M9 22h12M10 23h10" /><path stroke="#000000" d="M13 6h8M12 7h2M20 7h2M8 8h5M21 8h2M8 9h1M22 9h1M8 10h15" /><path stroke="#7f7f7f" d="M14 7h6M13 8h8M9 9h13" /><path stroke="#000000" d="M14 10h3M13 11h1M17 11h1M19 11h5M13 12h1M15 12h1M17 12h1M19 12h1M21 12h1M23 12h1M13 13h1M17 13h1M19 13h1M23 13h1M14 14h3M20 14h3" /><path stroke="#f2f2f2" d="M14 11h3M14 12h1M16 12h1M20 12h1M22 12h1M14 13h3M20 13h3" /><path stroke="#000000" d="M11 17h1M14 17h1M11 18h1M14 18h1M11 19h1M14 19h1M12 20h2" /><path stroke="#fff200" d="M15 19h1M14 20h3M13 21h5M14 22h3M15 23h1" /></svg>